<svg id="Layer_1" data-name="Layer 1" xmlns="http://www.w3.org/2000/svg" viewBox="0 0 248.9 92.04"><defs><style>.cls-1{fill:#454545;}.cls-2{fill:#f99e1e;}</style></defs><title>PingdomLogo</title><path class="cls-1" d="M384.41,417.18a1.48,1.48,0,0,1-.1.57,1.39,1.39,0,0,1-.29.45,1.3,1.3,0,0,1-.43.29,1.62,1.62,0,0,1-1.12,0,1.21,1.21,0,0,1-.44-.29,1.33,1.33,0,0,1-.28-.44,1.57,1.57,0,0,1-.1-.58,1.54,1.54,0,0,1,.1-.58,1.51,1.51,0,0,1,.29-.45,1.35,1.35,0,0,1,.44-.29,1.42,1.42,0,0,1,.55-.1,1.47,1.47,0,0,1,.56.1,1.35,1.35,0,0,1,.44.29,1.48,1.48,0,0,1,.28.45A1.54,1.54,0,0,1,384.41,417.18Zm-.19,0a1.3,1.3,0,0,0-.1-.54,1.14,1.14,0,0,0-.25-.39.91.91,0,0,0-.37-.24,1.23,1.23,0,0,0-.47-.09,1.22,1.22,0,0,0-.46.09,1,1,0,0,0-.38.24,1.3,1.3,0,0,0-.25.39,1.49,1.49,0,0,0-.09.54,1.47,1.47,0,0,0,.09.53,1.3,1.3,0,0,0,.25.39,1,1,0,0,0,.38.24,1.22,1.22,0,0,0,.46.09,1.23,1.23,0,0,0,.47-.09.91.91,0,0,0,.37-.24,1.16,1.16,0,0,0,.26-.39A1.47,1.47,0,0,0,384.22,417.18Zm-.84.75-.41-.62h-.12v.6h-.34v-1.57H383a.61.61,0,0,1,.43.13.41.41,0,0,1,.15.35.43.43,0,0,1-.3.43l.42.62Zm-.1-1.09c0-.14-.09-.22-.26-.22h-.17v.45H383C383.19,417.07,383.28,417,383.28,416.84Z" transform="translate(-181.13 -350.26)"/><path class="cls-1" d="M187.66,406.9a17.15,17.15,0,0,1-6.41-1.16v-3.31a28.43,28.43,0,0,0,6.37,1.29c2.1,0,4.15-.39,4.15-2.91,0-1.95-1.43-2.38-3.22-2.89l-1.67-.46c-2.18-.62-5.75-1.51-5.75-5.86,0-4.9,4-6.06,8-6.06a12.43,12.43,0,0,1,5.75,1.2v3.19a15.41,15.41,0,0,0-5.9-1.29c-2.57,0-4.2.51-4.2,2.72,0,1.91,1.48,2.37,3.26,2.84l2,.54c2.37.62,5.4,2,5.4,5.91,0,4.93-3.53,6.25-7.84,6.25m21.65,0c3.84,0,9.59-1.17,9.59-10.68s-5.91-10.68-9.59-10.68c-4,0-9.6,1.55-9.6,10.68,0,9.4,5.59,10.68,9.6,10.68m0-18.49c2.13,0,5.71.55,5.71,7.81,0,7-3.81,7.77-5.71,7.77-1.6,0-5.71-.55-5.71-7.77s3.57-7.81,5.71-7.81m14.62,18.1h3.89V379.16h-3.89Zm26.4,0v-13.9c0-5.4-3.11-7.07-7.61-7.07A22.55,22.55,0,0,0,235,387v3.14a25,25,0,0,1,7.18-1.44c2.68,0,4.27.62,4.27,3.3v1.79H241.9c-3.3,0-8.66,1.09-8.66,6.8,0,5.2,3.46,6.33,6.6,6.33a8.91,8.91,0,0,0,6.72-3.07l.39,2.68Zm-3.89-5.32s-2.79,2.68-5.63,2.68c-2.06,0-3.69-.78-3.69-3.42,0-3.34,2.1-4.27,5.63-4.31l3.69,0ZM264.38,389a8.2,8.2,0,0,1,3.23.59v-3.54a5.46,5.46,0,0,0-2.8-.54,5.35,5.35,0,0,0-4.81,3.22l-.51-2.84h-3.07v20.59h3.88v-15s1.79-2.49,4.08-2.49m39.32-3.11h-4.36l-2.48,11.82c-.66,3.07-1.29,7-1.29,7s-.85-4.32-1.67-7l-3.53-11.82h-5.59l-3.54,11.82c-.81,2.72-1.63,7-1.63,7s-.66-4.27-1.24-7l-2.49-11.82h-4.42l5.43,20.59h5.36l3.19-11c.81-2.84,2.13-7.69,2.13-7.69s1.24,4.81,2.1,7.73l3.19,10.95h5.4Zm4.85,20.59h3.88V385.79h-3.88Zm28.22,0V392.45c0-5.24-2.88-6.91-6.68-6.91-4.39,0-7.81,3.3-7.81,3.3l-.77-2.92h-3v20.59h3.88v-15s3.34-2.6,6.8-2.6c2.64,0,3.69,1,3.69,3.53v14.1Zm23.19,0V379.16h-3.88v8.47a7.24,7.24,0,0,0-5.44-2.09c-2.76,0-9.32,1.32-9.32,10.68s5.32,10.68,8.54,10.68a8.42,8.42,0,0,0,6.64-3l.43,2.6Zm-3.88-5.05s-2.65,2.37-5.44,2.37c-2.41,0-5.44-.82-5.44-7.61,0-6.45,3-7.58,5.83-7.58a8.19,8.19,0,0,1,5.05,2.06Zm15.83,5.44c4.31,0,7.85-1.32,7.85-6.25,0-3.89-3-5.29-5.41-5.91l-2-.54c-1.79-.47-3.26-.93-3.26-2.84,0-2.21,1.62-2.72,4.19-2.72a15.41,15.41,0,0,1,5.9,1.29v-3.19a12.4,12.4,0,0,0-5.74-1.2c-4.08,0-8,1.16-8,6.06,0,4.35,3.57,5.24,5.74,5.86l1.68.46c1.78.51,3.21.94,3.21,2.89,0,2.52-2,2.91-4.15,2.91a28.43,28.43,0,0,1-6.37-1.29v3.31a17.15,17.15,0,0,0,6.41,1.16" transform="translate(-181.13 -350.26)"/><path class="cls-2" d="M397.86,373.39c-2.8.76-5.64,1.39-8.41,2.25a37.05,37.05,0,0,0-20.82-9.31,67.65,67.65,0,0,1,39.27-12.72l-4.84,4.45s20.51-.73,25.68-7.8a9.26,9.26,0,0,1-.67,2.13,23,23,0,0,1-7.47,10.54A42.58,42.58,0,0,1,410,369a102.26,102.26,0,0,1-11.57,4.24l-.53.15m32.17-.7a112.83,112.83,0,0,0-38.59,4.89,37.11,37.11,0,0,1,6.49,9.26c10.34-5.76,24.68-13.11,32.1-14.15m-30.8,17.1a37.15,37.15,0,0,1,2.34,9.79l18-18.53Zm9.72,9.75a1.55,1.55,0,1,0,0-3.09,1.55,1.55,0,1,0,0,3.09m0-2.75a1.2,1.2,0,1,1-1.23,1.2,1.13,1.13,0,0,1,1.23-1.2m.65,2-.13-.35a.86.86,0,0,0-.21-.35.43.43,0,0,0,.29-.41c0-.41-.33-.47-.64-.47h-.49v1.58h.34v-.61h.2a.72.72,0,0,1,.18.36l.07.26Zm-.69-1.33c.24,0,.3,0,.3.22s-.1.27-.45.27v-.49h.15" transform="translate(-181.13 -350.26)"/><path class="cls-1" d="M278.57,436.07a5.11,5.11,0,0,1-4.3-2h-.18c.12,1.23.18,2,.18,2.24v6h-3.1V421.23h2.51c.07.27.21.92.43,1.95h.16a4.86,4.86,0,0,1,4.35-2.22,5.08,5.08,0,0,1,4.26,2,10.86,10.86,0,0,1,0,11.13A5.12,5.12,0,0,1,278.57,436.07Zm-.75-12.57a3.23,3.23,0,0,0-2.7,1.08,5.64,5.64,0,0,0-.85,3.45v.46a6.77,6.77,0,0,0,.85,3.86,3.14,3.14,0,0,0,2.75,1.19,2.8,2.8,0,0,0,2.48-1.32,6.81,6.81,0,0,0,.87-3.76,6.63,6.63,0,0,0-.86-3.71A2.9,2.9,0,0,0,277.82,423.5Z" transform="translate(-181.13 -350.26)"/><path class="cls-1" d="M287.14,417.36a1.7,1.7,0,0,1,.45-1.27,1.79,1.79,0,0,1,1.3-.45,1.71,1.71,0,0,1,1.27.45,2,2,0,0,1,0,2.52,1.72,1.72,0,0,1-1.27.46,1.79,1.79,0,0,1-1.3-.46A1.69,1.69,0,0,1,287.14,417.36Zm3.28,18.45h-3.1V421.23h3.1Z" transform="translate(-181.13 -350.26)"/><path class="cls-1" d="M307,435.81h-3.11v-9a3.86,3.86,0,0,0-.68-2.51,2.6,2.6,0,0,0-2.15-.83,3.43,3.43,0,0,0-2.88,1.16,6.41,6.41,0,0,0-.91,3.88v7.27h-3.1V421.23h2.43l.44,1.91h.15a4.31,4.31,0,0,1,1.88-1.61,6.19,6.19,0,0,1,2.68-.57q5.25,0,5.25,5.34Z" transform="translate(-181.13 -350.26)"/><path class="cls-1" d="M323,421.23v1.7l-2.49.46a4.12,4.12,0,0,1,.57,1.13,4.51,4.51,0,0,1,.22,1.43,4.37,4.37,0,0,1-1.55,3.54,6.54,6.54,0,0,1-4.29,1.3,6.87,6.87,0,0,1-1.26-.11,1.75,1.75,0,0,0-1,1.45.82.82,0,0,0,.47.75,4,4,0,0,0,1.72.25h2.55a5.62,5.62,0,0,1,3.66,1,3.6,3.6,0,0,1,1.25,3,4.32,4.32,0,0,1-2,3.82,10.73,10.73,0,0,1-5.91,1.34,8.15,8.15,0,0,1-4.54-1.05,3.39,3.39,0,0,1-1.57-3,3.19,3.19,0,0,1,.85-2.26A4.55,4.55,0,0,1,312,434.7a2.22,2.22,0,0,1-1-.85,2.13,2.13,0,0,1-.41-1.23,2.17,2.17,0,0,1,.46-1.39,5.55,5.55,0,0,1,1.38-1.12,4,4,0,0,1-1.84-1.59,5.16,5.16,0,0,1,.79-6.25,6.29,6.29,0,0,1,4.26-1.31,9.8,9.8,0,0,1,1.3.09,9.13,9.13,0,0,1,1,.18ZM311.5,438.08a1.71,1.71,0,0,0,.9,1.54,5,5,0,0,0,2.54.54,7.61,7.61,0,0,0,3.77-.73,2.18,2.18,0,0,0,1.24-1.92,1.45,1.45,0,0,0-.68-1.35,5.48,5.48,0,0,0-2.53-.4H314.4a3.28,3.28,0,0,0-2.12.62A2.06,2.06,0,0,0,311.5,438.08ZM312.83,426a3,3,0,0,0,.7,2.11,2.68,2.68,0,0,0,2,.73c1.79,0,2.69-1,2.69-2.87a3.26,3.26,0,0,0-.67-2.19,2.51,2.51,0,0,0-2-.78,2.61,2.61,0,0,0-2,.77A3.22,3.22,0,0,0,312.83,426Z" transform="translate(-181.13 -350.26)"/><path class="cls-1" d="M330.44,436.07a5.08,5.08,0,0,1-4.26-2,10.83,10.83,0,0,1,0-11.13,5.13,5.13,0,0,1,4.29-2,5,5,0,0,1,4.38,2.13H335a18.83,18.83,0,0,1-.23-2.48v-5.32h3.11v20.52h-2.42L335,433.9h-.15A5,5,0,0,1,330.44,436.07Zm.83-2.5a3.37,3.37,0,0,0,2.78-1.08A5.65,5.65,0,0,0,335,429v-.44a6.48,6.48,0,0,0-.9-3.91,3.31,3.31,0,0,0-2.81-1.16,2.86,2.86,0,0,0-2.52,1.32,6.77,6.77,0,0,0-.88,3.78,6.52,6.52,0,0,0,.86,3.69A2.88,2.88,0,0,0,331.27,433.57Z" transform="translate(-181.13 -350.26)"/><path class="cls-1" d="M354.6,428.49a8,8,0,0,1-1.83,5.58,6.59,6.59,0,0,1-5.1,2,7.06,7.06,0,0,1-3.62-.92,6.14,6.14,0,0,1-2.41-2.65,9.07,9.07,0,0,1-.84-4,7.89,7.89,0,0,1,1.82-5.54,6.61,6.61,0,0,1,5.13-2,6.41,6.41,0,0,1,5,2A7.88,7.88,0,0,1,354.6,428.49Zm-10.61,0q0,5.06,3.73,5.05t3.69-5.05q0-5-3.72-5a3.18,3.18,0,0,0-2.83,1.29A6.59,6.59,0,0,0,344,428.49Z" transform="translate(-181.13 -350.26)"/><path class="cls-1" d="M369.77,435.81h-3.11v-9a4.09,4.09,0,0,0-.63-2.5,2.33,2.33,0,0,0-2-.82,3,3,0,0,0-2.63,1.16,6.82,6.82,0,0,0-.84,3.88v7.27h-3.1V421.23h2.43l.44,1.91h.15a4,4,0,0,1,1.76-1.61,5.67,5.67,0,0,1,2.54-.57q3.36,0,4.46,2.3h.21a4.38,4.38,0,0,1,1.82-1.69A5.83,5.83,0,0,1,374,421a4.88,4.88,0,0,1,3.8,1.32,5.82,5.82,0,0,1,1.19,4v9.51h-3.09v-9a4.09,4.09,0,0,0-.64-2.5,2.36,2.36,0,0,0-2-.82,3.08,3.08,0,0,0-2.64,1.12,5.8,5.8,0,0,0-.84,3.46Z" transform="translate(-181.13 -350.26)"/></svg>